<svg width="26" height="26" viewBox="0 0 26 26" fill="none" xmlns="http://www.w3.org/2000/svg">
<path d="M11.7 19.5H14.3V11.7H11.7V19.5ZM13 9.1C13.3683 9.1 13.6771 8.97542 13.9262 8.72625C14.1754 8.47708 14.3 8.16833 14.3 7.8C14.3 7.43167 14.1754 7.12292 13.9262 6.87375C13.6771 6.62458 13.3683 6.5 13 6.5C12.6317 6.5 12.3229 6.62458 12.0737 6.87375C11.8246 7.12292 11.7 7.43167 11.7 7.8C11.7 8.16833 11.8246 8.47708 12.0737 8.72625C12.3229 8.97542 12.6317 9.1 13 9.1ZM13 26C11.2017 26 9.51167 25.6587 7.93 24.9762C6.34833 24.2937 4.9725 23.3675 3.8025 22.1975C2.6325 21.0275 1.70625 19.6517 1.02375 18.07C0.34125 16.4883 0 14.7983 0 13C0 11.2017 0.34125 9.51167 1.02375 7.93C1.70625 6.34833 2.6325 4.9725 3.8025 3.8025C4.9725 2.6325 6.34833 1.70625 7.93 1.02375C9.51167 0.34125 11.2017 0 13 0C14.7983 0 16.4883 0.34125 18.07 1.02375C19.6517 1.70625 21.0275 2.6325 22.1975 3.8025C23.3675 4.9725 24.2937 6.34833 24.9762 7.93C25.6587 9.51167 26 11.2017 26 13C26 14.7983 25.6587 16.4883 24.9762 18.07C24.2937 19.6517 23.3675 21.0275 22.1975 22.1975C21.0275 23.3675 19.6517 24.2937 18.07 24.9762C16.4883 25.6587 14.7983 26 13 26ZM13 23.4C15.9033 23.4 18.3625 22.3925 20.3775 20.3775C22.3925 18.3625 23.4 15.9033 23.4 13C23.4 10.0967 22.3925 7.6375 20.3775 5.6225C18.3625 3.6075 15.9033 2.6 13 2.6C10.0967 2.6 7.6375 3.6075 5.6225 5.6225C3.6075 7.6375 2.6 10.0967 2.6 13C2.6 15.9033 3.6075 18.3625 5.6225 20.3775C7.6375 22.3925 10.0967 23.4 13 23.4Z" fill="#22C55E"/>
</svg>
