<svg width="18" height="18" viewBox="0 0 18 18" fill="none" xmlns="http://www.w3.org/2000/svg">
<path d="M3.0475 16.2714L3.4 16.6218L3.7525 16.2714L9 11.0551L14.2475 16.2714L14.6 16.6218L14.9525 16.2714L16.3525 14.8798L16.7092 14.5251L16.3525 14.1705L11.1092 8.95842L16.3525 3.74629L16.7092 3.39168L16.3525 3.03708L14.9525 1.64539L14.6 1.29499L14.2475 1.64539L9 6.86172L3.7525 1.64539L3.4 1.29499L3.0475 1.64539L1.6475 3.03708L1.29078 3.39168L1.6475 3.74629L6.89078 8.95842L1.6475 14.1705L1.29078 14.5251L1.6475 14.8798L3.0475 16.2714Z" fill="#1E1E1E" stroke="black"/>
</svg>
