<?xml version="1.0" encoding="UTF-8"?>
<svg version="1.1" xmlns="http://www.w3.org/2000/svg" width="512" height="512">
<path d="M0 0 C1.01790619 0.00215515 2.03581238 0.0043103 3.08456421 0.00653076 C17.69363523 0.05620146 32.02575853 0.30709809 46.375 3.3125 C47.34985352 3.51117676 48.32470703 3.70985352 49.32910156 3.91455078 C97.7109774 14.03517194 141.69928269 35.9516877 177.375 70.3125 C178.3640332 71.26068604 178.3640332 71.26068604 179.37304688 72.22802734 C188.86130305 81.37247479 197.6012044 90.66984009 205.375 101.3125 C206.23306152 102.46355017 207.09113451 103.61459177 207.94921875 104.765625 C213.98736829 112.95680614 219.34595521 121.47054105 224.375 130.3125 C224.73948242 130.94430176 225.10396484 131.57610352 225.47949219 132.22705078 C247.00981855 169.84336237 256.83759735 212.56515288 256.75 255.625 C256.74918427 257.13927582 256.74918427 257.13927582 256.74835205 258.68414307 C256.70758601 275.19373539 255.80029309 291.11032001 252.375 307.3125 C252.15537598 308.35438477 251.93575195 309.39626953 251.70947266 310.46972656 C241.61185215 356.76299311 219.25271242 399.17663721 186.375 433.3125 C185.74287598 433.97185547 185.11075195 434.63121094 184.45947266 435.31054688 C175.31502521 444.79880305 166.01765991 453.5387044 155.375 461.3125 C154.22394983 462.17056152 153.07290823 463.02863451 151.921875 463.88671875 C143.73224019 469.92427396 135.22961724 475.30707302 126.375 480.3125 C125.66778809 480.7146875 124.96057617 481.116875 124.23193359 481.53125 C98.02725553 496.28470851 69.08953614 505.81420334 39.375 510.3125 C38.25617432 510.48982666 37.13734863 510.66715332 35.98461914 510.84985352 C24.26264053 512.53126341 12.64001024 512.66984341 0.8125 512.625 C-0.71810562 512.62176727 -0.71810562 512.62176727 -2.27963257 512.61846924 C-16.90710524 512.56883352 -31.25763838 512.32169712 -45.625 509.3125 C-47.08728027 509.01448486 -47.08728027 509.01448486 -48.57910156 508.71044922 C-91.84881524 499.65920074 -132.05019334 481.27479329 -165.625 452.3125 C-166.37007813 451.67828125 -167.11515625 451.0440625 -167.8828125 450.390625 C-181.38779833 438.57948485 -194.05918743 425.82889772 -204.625 411.3125 C-205.48149066 410.16255169 -206.33826433 409.01281411 -207.1953125 407.86328125 C-213.23534209 399.67315742 -218.61867614 391.16870382 -223.625 382.3125 C-224.0271875 381.60528809 -224.429375 380.89807617 -224.84375 380.16943359 C-237.8691741 357.03404164 -246.61801461 331.86287591 -251.9375 305.875 C-252.08485596 305.15610596 -252.23221191 304.43721191 -252.3840332 303.6965332 C-255.35789088 288.05024391 -255.99800362 272.57681954 -255.9375 256.6875 C-255.93534485 255.66959381 -255.9331897 254.65168762 -255.93096924 253.60293579 C-255.88129854 238.99386477 -255.63040191 224.66174147 -252.625 210.3125 C-252.42632324 209.33764648 -252.22764648 208.36279297 -252.02294922 207.35839844 C-241.90232806 158.9765226 -219.9858123 114.98821731 -185.625 79.3125 C-184.99287598 78.65314453 -184.36075195 77.99378906 -183.70947266 77.31445312 C-174.56502521 67.82619695 -165.26765991 59.0862956 -154.625 51.3125 C-153.47394983 50.45443848 -152.32290823 49.59636549 -151.171875 48.73828125 C-142.98224019 42.70072604 -134.47961724 37.31792698 -125.625 32.3125 C-124.91778809 31.9103125 -124.21057617 31.508125 -123.48193359 31.09375 C-100.34654164 18.0683259 -75.17537591 9.31948539 -49.1875 4 C-48.46860596 3.85264404 -47.74971191 3.70528809 -47.0090332 3.5534668 C-31.36274391 0.57960912 -15.88931954 -0.06050362 0 0 Z " fill="#46CB6B" transform="translate(255.625,-0.3125)"/>
<path d="M0 0 C2.89874417 1.29264127 4.76602526 2.56487568 6.8125 4.984375 C7.32441895 5.58266113 7.83633789 6.18094727 8.36376953 6.79736328 C8.90372559 7.4417334 9.44368164 8.08610352 10 8.75 C10.56960449 9.4188623 11.13920898 10.08772461 11.72607422 10.77685547 C12.90950043 12.16706226 14.090305 13.55950477 15.26855469 14.95410156 C17.37832863 17.44703805 19.50783203 19.92253606 21.63867188 22.39746094 C26.40898625 27.94193277 31.1389063 33.52021855 35.8581543 39.1081543 C39.20217796 43.06486006 42.56474685 47.00526212 45.9375 50.9375 C46.43419189 51.51669189 46.93088379 52.09588379 47.44262695 52.69262695 C49.99510418 55.66756041 52.55069982 58.6397708 55.109375 61.609375 C59.6983591 66.94120634 64.25877834 72.28329671 68.6875 77.75 C72.24267904 82.13151795 75.96769537 86.31710681 79.765625 90.48828125 C82.00134533 93.00151232 84.13377682 95.57311479 86.25 98.1875 C89.85470085 102.63852192 93.55370267 106.99198605 97.3125 111.3125 C97.86357422 111.94599365 98.41464844 112.5794873 98.98242188 113.23217773 C100.10162485 114.51831655 101.22092837 115.80436788 102.34033203 117.09033203 C108.54872623 124.23391241 114.72823972 131.39645872 120.6875 138.75 C124.24267904 143.13151795 127.96769537 147.31710681 131.765625 151.48828125 C134.00134533 154.00151232 136.13377682 156.57311479 138.25 159.1875 C141.87263209 163.66214486 145.59479337 168.03390231 149.375 172.375 C153.65294766 177.289181 157.91270556 182.21685001 162.125 187.1875 C162.57407715 187.71585449 163.0231543 188.24420898 163.48583984 188.78857422 C164.66631333 190.18475034 165.83372769 191.59193952 167 193 C167.59554688 193.61488281 168.19109375 194.22976563 168.8046875 194.86328125 C172.0218042 200.61414018 169.55606383 207.59047715 167.91870117 213.52441406 C167.46394409 215.0901416 167.46394409 215.0901416 167 216.6875 C166.68458252 217.78674805 166.36916504 218.88599609 166.04418945 220.01855469 C155.72948663 255.15293196 138.79962006 287.1484733 115 315 C114.36320312 315.74894531 113.72640625 316.49789063 113.0703125 317.26953125 C101.25297532 330.76520621 88.51448412 343.43558025 74 354 C72.85005169 354.85649066 71.70031411 355.71326433 70.55078125 356.5703125 C62.36065742 362.61034209 53.85620382 367.99367614 45 373 C44.29278809 373.4021875 43.58557617 373.804375 42.85693359 374.21875 C26.09743629 383.65449073 8.52819561 390.53285452 -9.875 396.0625 C-10.8549292 396.3618042 -11.8348584 396.6611084 -12.84448242 396.96948242 C-18.47611201 398.58967311 -24.13716048 400.1575166 -30 399 C-32.50594935 397.4606744 -34.14119257 396.24520018 -36.1875 394.25 C-37.30305384 393.23661404 -38.41895152 392.22360649 -39.53515625 391.2109375 C-40.10250488 390.68209961 -40.66985352 390.15326172 -41.25439453 389.60839844 C-44.14094517 386.94873472 -47.13634856 384.41856798 -50.125 381.875 C-50.71369873 381.36936523 -51.30239746 380.86373047 -51.90893555 380.34277344 C-55.40023388 377.34537557 -58.92813693 374.40148408 -62.5 371.5 C-67.90362902 367.11054182 -73.18038455 362.58317191 -78.45703125 358.04296875 C-83.40558716 353.78648075 -88.3947854 349.57832994 -93.38232422 345.36767578 C-95.02908979 343.97540583 -96.67310067 342.57994527 -98.31640625 341.18359375 C-103.30026248 336.95146367 -108.29559272 332.74262602 -113.375 328.625 C-118.4890728 324.46515653 -123.46265945 320.15656496 -128.42407227 315.81713867 C-133.14873629 311.69709567 -137.97911895 307.75467717 -142.92578125 303.90234375 C-144.9760269 302.02198662 -145.968938 300.55771734 -147 298 C-140.93671473 289.96684556 -134.67785053 282.12644044 -128.25219727 274.38012695 C-124.53449393 269.88952072 -120.89005673 265.35285976 -117.3125 260.75 C-113.37133992 255.68258896 -109.29136171 250.76168299 -105.11767578 245.88476562 C-101.39942563 241.52026386 -97.85487713 237.03752261 -94.3359375 232.51171875 C-90.0595134 227.03066814 -85.63406491 221.6788715 -81.19873047 216.32617188 C-77.50067189 211.85240318 -73.87525859 207.33206942 -70.3125 202.75 C-66.30029452 197.59239472 -62.15106047 192.57539655 -57.90893555 187.60571289 C-54.59766058 183.72273254 -51.3842435 179.77636143 -48.21484375 175.77734375 C-45.3990022 172.24636784 -42.54197784 168.74975881 -39.6875 165.25 C-35.52735512 160.14632947 -31.4201745 155.00769429 -27.375 149.8125 C-23.24924147 144.51647962 -18.98702662 139.3553019 -14.61474609 134.26098633 C-12.30885029 131.57163916 -10.10909801 128.84530693 -8 126 C-8.6573262 126.00444122 -9.3146524 126.00888245 -9.99189758 126.01345825 C-16.82099234 126.0576366 -23.65004663 126.08784354 -30.47924805 126.10986328 C-33.02939502 126.11993328 -35.57953042 126.13359004 -38.12963867 126.15087891 C-41.7908819 126.17508312 -45.45197274 126.18647305 -49.11328125 126.1953125 C-50.82902092 126.21079636 -50.82902092 126.21079636 -52.579422 126.22659302 C-53.64029526 126.22674408 -54.70116852 126.22689514 -55.79418945 126.22705078 C-56.72906693 126.231492 -57.6639444 126.23593323 -58.62715149 126.24050903 C-61 126 -61 126 -64 124 C-65.29561696 116.99061901 -61.70342088 111.93459075 -58.3125 106 C-57.72307617 104.94039063 -57.13365234 103.88078125 -56.52636719 102.7890625 C-54.70061266 99.51650196 -52.85401999 96.25661776 -51 93 C-50.46616699 92.06027344 -49.93233398 91.12054688 -49.38232422 90.15234375 C-44.86915417 82.20893587 -44.86915417 82.20893587 -43.15942383 79.2109375 C-38.05654125 70.21325119 -33.23176876 61.07533024 -28.40664673 51.92703247 C-23.20894785 42.07827795 -17.87242005 32.32708723 -12.34887695 22.65600586 C-8.08169083 15.18140837 -3.98806353 7.62671969 0 0 Z " fill="#179C5F" transform="translate(337,107)"/>
<path d="M0 0 C35.64 0 71.28 0 108 0 C99.0125 17.975 99.0125 17.975 94.0625 26.5 C88.67514842 35.89893558 83.55091646 45.41807287 78.5 55 C72.98776117 65.45415593 67.3520945 75.81399709 61.48291016 86.07373047 C57.55195406 92.96322849 53.8042281 99.93446279 50.15649414 106.9777832 C49.78258545 107.69925537 49.40867676 108.42072754 49.0234375 109.1640625 C48.67740479 109.8331665 48.33137207 110.50227051 47.97485352 111.19165039 C47.12911085 112.76049986 46.19104642 114.27890001 45.23828125 115.78515625 C43.50381101 118.88750522 43.79500756 121.51512853 44 125 C46.54938815 126.27469407 48.33040998 126.12016184 51.18408203 126.11352539 C52.80553635 126.11341209 52.80553635 126.11341209 54.45974731 126.11329651 C55.63060883 126.10813522 56.80147034 126.10297394 58.0078125 126.09765625 C59.20356903 126.0962413 60.39932556 126.09482635 61.63131714 126.09336853 C65.46256987 126.08775663 69.29376484 126.07520208 73.125 126.0625 C75.71744707 126.05748653 78.30989506 126.05292336 80.90234375 126.04882812 C87.26824898 126.03778333 93.63412037 126.02103359 100 126 C99.06422798 127.25501591 98.12741686 128.50925708 97.19018555 129.76318359 C96.40782784 130.81099503 96.40782784 130.81099503 95.60966492 131.87997437 C93.09229992 135.19549567 90.45437173 138.40847472 87.8125 141.625 C83.60730657 146.76808993 79.45470919 151.94437564 75.375 157.1875 C71.41159859 162.27378154 67.31008929 167.21635036 63.11791992 172.11499023 C59.87601554 175.92025511 56.75656773 179.80437521 53.6875 183.75 C49.58119313 189.02742499 45.3854311 194.22117721 41.125 199.375 C40.5357373 200.08793213 39.94647461 200.80086426 39.33935547 201.53540039 C38.74912598 202.24946045 38.15889648 202.96352051 37.55078125 203.69921875 C30.04938033 212.77511432 22.61323342 221.90005089 15.375 231.1875 C11.41115267 236.27344746 7.31010647 241.21633028 3.11791992 246.11499023 C-0.12398446 249.92025511 -3.24343227 253.80437521 -6.3125 257.75 C-10.98482929 263.75487693 -15.78729506 269.6419369 -20.63647461 275.50463867 C-26.80577077 282.96413389 -32.90613962 290.4788401 -39 298 C-40.29667249 294.10998254 -39.41885773 292.59096046 -38.0859375 288.7421875 C-37.77104118 287.81850372 -37.77104118 287.81850372 -37.44978333 286.87615967 C-36.99940471 285.55735121 -36.54509418 284.23988023 -36.08724976 282.92364502 C-34.8977447 279.50226988 -33.73728785 276.0710578 -32.57421875 272.640625 C-32.34581802 271.96927521 -32.1174173 271.29792542 -31.88209534 270.60623169 C-29.79616689 264.4534343 -27.93648881 258.25999464 -26.16064453 252.01245117 C-22.75103636 240.12859557 -18.84444963 228.38573922 -15.0078125 216.63446045 C-10.53353221 202.92513015 -6.14094847 189.19619147 -1.94238281 175.3996582 C-0.08055111 169.31794605 1.92417093 163.35744317 4.265625 157.44189453 C5.06307099 154.79028058 5.27904223 152.75263536 5 150 C2.3460447 147.3460447 1.06474997 147.72848617 -2.64306641 147.68115234 C-3.82413971 147.66128265 -5.00521301 147.64141296 -6.22207642 147.62094116 C-7.50230682 147.60938995 -8.78253723 147.59783875 -10.1015625 147.5859375 C-11.40829926 147.56657135 -12.71503601 147.5472052 -14.06137085 147.5272522 C-17.53667109 147.4758583 -21.01201012 147.43627178 -24.48748779 147.39910889 C-28.03342341 147.35911447 -31.57919662 147.30800141 -35.125 147.2578125 C-42.08321476 147.16096753 -49.04153365 147.07659034 -56 147 C-54.17658936 140.65621115 -52.14312488 134.47327137 -49.7265625 128.33203125 C-49.41075729 127.51957443 -49.09495209 126.70711761 -48.76957703 125.87004089 C-48.08445571 124.10829002 -47.39767035 122.34718554 -46.7093811 120.58666992 C-44.80447289 115.71334721 -42.91266617 110.83493688 -41.01953125 105.95703125 C-40.61657333 104.91958771 -40.21361542 103.88214417 -39.79844666 102.81326294 C-35.37172361 91.40447148 -31.01465039 79.96927019 -26.6585083 68.53338623 C-20.06830074 51.23353106 -13.46050741 33.94110046 -6.75 16.6875 C-6.45509674 15.92848389 -6.16019348 15.16946777 -5.85635376 14.38745117 C-5.04615468 12.30336666 -4.23442876 10.21988617 -3.421875 8.13671875 C-2.97424805 6.98905029 -2.52662109 5.84138184 -2.06542969 4.65893555 C-1 2 -1 2 0 0 Z " fill="#FDFEFE" transform="translate(230,106)"/>
<path d="M0 0 C7.51037714 -0.06949335 15.02072096 -0.12280778 22.53134632 -0.15543652 C26.01881576 -0.17109635 29.50606532 -0.1923398 32.9934082 -0.22631836 C37.00213743 -0.2651328 41.01063548 -0.2797065 45.01953125 -0.29296875 C46.27272659 -0.30845261 47.52592194 -0.32393646 48.8170929 -0.33988953 C50.55855843 -0.34022942 50.55855843 -0.34022942 52.33520508 -0.34057617 C53.35890701 -0.34723801 54.38260895 -0.35389984 55.43733215 -0.36076355 C58 0 58 0 59.86479187 1.31929016 C61 3 61 3 60.828125 6.23193359 C59.99678828 10.01461368 58.96726895 13.61269842 57.75 17.2890625 C57.53182617 17.95537689 57.31365234 18.62169128 57.08886719 19.30819702 C56.39804824 21.41564572 55.69958519 23.52044677 55 25.625 C54.3014628 27.73701371 53.60466003 29.84956199 52.91113281 31.96322632 C52.28303338 33.87596654 51.64947954 35.78691313 51.015625 37.69775391 C50.16391573 40.46703745 49.49701227 43.14960762 49 46 C45.06785699 44.41060574 42.66979654 41.83657498 39.75 38.8125 C36.59842941 35.58569298 33.44077293 32.42181337 30 29.5 C26.15194152 26.21968785 22.62284202 22.65194198 19.07519531 19.05566406 C15.79565965 15.74874188 12.39643535 12.65831453 8.859375 9.6328125 C5.76274909 6.91350655 2.76464077 4.05838385 0 1 C0 0.67 0 0.34 0 0 Z " fill="#179C5F" transform="translate(175,253)"/>
</svg>
