<svg width="14" height="15" viewBox="0 0 14 15" fill="none" xmlns="http://www.w3.org/2000/svg">
<g clip-path="url(#clip0_41_7857)">
<path d="M6.9957 -0.0116742C7.02266 -0.0116583 7.04962 -0.0116424 7.07739 -0.0116259C8.70328 -0.00722391 10.2234 0.604639 11.4852 1.69853C11.4524 1.80405 11.4196 1.82577 11.3382 1.89262C11.3135 1.91328 11.2887 1.93394 11.2631 1.95522C11.2372 1.97686 11.2112 1.9985 11.1844 2.0208C11.1347 2.06396 11.0852 2.10729 11.0357 2.1508C11.0107 2.17282 10.9856 2.19484 10.9598 2.21752C10.9347 2.23961 10.9095 2.26171 10.8836 2.28447C10.8335 2.32842 10.7834 2.37237 10.7333 2.4163C10.7084 2.43806 10.6836 2.45981 10.6581 2.48222C9.83091 3.20732 9.83091 3.20732 9.75635 3.27267C9.70408 3.3185 9.65181 3.36436 9.59956 3.41022C9.57326 3.4333 9.54697 3.45637 9.51987 3.48015C9.49626 3.50088 9.47264 3.52161 9.44831 3.54298C9.41437 3.5726 9.41437 3.5726 9.37974 3.60283C9.35711 3.6253 9.33448 3.64777 9.31116 3.67092C9.24302 3.72002 9.24302 3.72002 9.17744 3.71933C9.0881 3.6834 9.00755 3.63538 8.92515 3.58452C7.97695 3.02455 6.84762 2.9491 5.81542 3.25719C4.77201 3.59404 3.89923 4.36116 3.37129 5.37901C2.83604 6.45281 2.73653 7.68491 3.06333 8.84697C3.42181 10.0063 4.17929 10.9371 5.19604 11.4872C6.17113 11.9907 7.30484 12.0566 8.3303 11.6926C9.13472 11.3867 9.83678 10.8503 10.3368 10.1067C10.3486 10.0892 10.3605 10.0718 10.3728 10.0537C10.5736 9.75508 10.7472 9.432 10.8563 9.08134C9.62911 9.08134 8.40193 9.08134 7.13755 9.08134C7.13755 8.09521 7.13755 7.10908 7.13755 6.09306C9.36634 6.09306 11.5951 6.09306 13.8915 6.09306C13.9541 6.45123 14.0047 6.76467 14.0064 7.12234C14.0066 7.15007 14.0068 7.17779 14.007 7.20636C14.0132 8.36405 14.0132 8.36405 13.9188 8.84697C13.9107 8.88981 13.9107 8.88981 13.9023 8.93351C13.6256 10.351 13.0263 11.6397 12.0868 12.6849C12.0695 12.7042 12.0522 12.7235 12.0344 12.7434C11.7843 13.0214 11.5301 13.2774 11.2391 13.5052C11.2076 13.5303 11.1762 13.5554 11.1447 13.5806C10.9208 13.7575 10.6883 13.9152 10.4461 14.0618C10.4268 14.0736 10.4075 14.0854 10.3875 14.0975C9.67105 14.5297 8.87973 14.809 8.06724 14.9407C8.03647 14.9459 8.00569 14.9511 7.97399 14.9565C7.65864 15.0047 7.34636 15.0098 7.02817 15.0085C7.00096 15.0084 6.97375 15.0083 6.94572 15.0083C6.5398 15.0068 6.14232 14.9972 5.74302 14.9114C5.7159 14.9056 5.68877 14.8998 5.66083 14.8938C4.47865 14.6304 3.37857 14.0888 2.46177 13.2415C2.4414 13.2229 2.42102 13.2043 2.40003 13.1852C2.03075 12.8392 1.68427 12.4656 1.39536 12.0403C1.37194 12.0066 1.34852 11.973 1.32508 11.9393C1.15992 11.6993 1.01272 11.4502 0.875831 11.1907C0.864834 11.17 0.853837 11.1493 0.842506 11.1279C0.495587 10.4677 0.264439 9.75684 0.117042 9.01726C0.111605 8.99016 0.106169 8.96307 0.100567 8.93515C0.0105546 8.46035 -0.0094308 7.99354 -0.00771338 7.5103C-0.00765445 7.48048 -0.00759552 7.45066 -0.00753481 7.41993C-0.00617662 6.99193 0.000683833 6.57204 0.0828628 6.15166C0.0882954 6.1231 0.0937279 6.09454 0.0993251 6.06511C0.310506 4.98345 0.702743 3.96867 1.31333 3.07548C1.32471 3.0587 1.33608 3.04191 1.3478 3.02462C1.52069 2.77108 1.71148 2.53951 1.91489 2.31377C1.94152 2.28404 1.94152 2.28404 1.96869 2.25371C2.21832 1.97628 2.47206 1.72079 2.76255 1.49345C2.79402 1.46831 2.8255 1.44318 2.85697 1.41804C3.08091 1.24115 3.3134 1.08346 3.55552 0.936812C3.57486 0.925029 3.59419 0.913246 3.61412 0.901107C4.32907 0.469829 5.12264 0.185621 5.93442 0.0579059C5.9673 0.052732 6.00018 0.0475581 6.03406 0.0422274C6.35443 -0.00476437 6.67268 -0.0123959 6.9957 -0.0116742Z" fill="#508EF7"/>
<path d="M6.99549 -0.0116742C7.02244 -0.0116583 7.0494 -0.0116424 7.07717 -0.0116259C8.70306 -0.00722391 10.2232 0.604639 11.485 1.69853C11.4522 1.80405 11.4194 1.82577 11.338 1.89262C11.3132 1.91328 11.2885 1.93394 11.2629 1.95522C11.2369 1.97686 11.211 1.9985 11.1842 2.0208C11.1345 2.06396 11.085 2.10729 11.0355 2.1508C11.0105 2.17282 10.9854 2.19484 10.9596 2.21752C10.9345 2.23961 10.9093 2.26171 10.8834 2.28447C10.8333 2.32842 10.7832 2.37237 10.733 2.4163C10.7082 2.43806 10.6834 2.45981 10.6578 2.48222C9.83069 3.20732 9.83069 3.20732 9.75614 3.27267C9.70386 3.3185 9.65159 3.36436 9.59934 3.41022C9.57304 3.4333 9.54675 3.45637 9.51966 3.48015C9.49604 3.50088 9.47242 3.52161 9.44809 3.54298C9.41415 3.5726 9.41415 3.5726 9.37952 3.60283C9.35689 3.6253 9.33426 3.64777 9.31095 3.67092C9.2428 3.72002 9.2428 3.72002 9.17722 3.71933C9.08788 3.6834 9.00734 3.63538 8.92493 3.58452C7.97673 3.02455 6.8474 2.9491 5.81521 3.25719C4.77179 3.59404 3.89901 4.36116 3.37107 5.37901C2.81996 6.48463 2.7766 7.65343 3.06311 8.84697C3.08143 8.92507 3.09961 9.00321 3.1178 9.08134C3.09429 9.10087 3.07078 9.12039 3.04656 9.14051C2.86302 9.2936 2.68248 9.44945 2.50557 9.61125C2.39924 9.7084 2.29115 9.80265 2.1817 9.89571C1.92818 10.1121 1.67776 10.3327 1.42762 10.5535C1.39847 10.5792 1.39847 10.5792 1.36874 10.6054C1.28259 10.6813 1.19664 10.7575 1.11145 10.8347C1.08495 10.8585 1.05844 10.8824 1.03113 10.9069C0.997452 10.9376 0.997452 10.9376 0.963092 10.9688C0.903395 11.0146 0.863986 11.028 0.793582 11.0442C0.403047 10.2178 0.138177 9.3569 0.0279575 8.43681C0.0255696 8.41726 0.0231817 8.39772 0.0207215 8.37758C0.00168363 8.21011 -0.00415937 8.0449 -0.0049404 7.87628C-0.00522996 7.83469 -0.00522996 7.83469 -0.00552536 7.79226C-0.0117568 6.63457 -0.0117568 6.63457 0.082645 6.15166C0.0880776 6.1231 0.0935102 6.09454 0.0991074 6.06511C0.310288 4.98345 0.702525 3.96867 1.31311 3.07548C1.32449 3.0587 1.33587 3.04191 1.34759 3.02462C1.52047 2.77108 1.71126 2.53951 1.91468 2.31377C1.9413 2.28404 1.9413 2.28404 1.96847 2.25371C2.2181 1.97628 2.47184 1.72079 2.76233 1.49345C2.79381 1.46831 2.82528 1.44318 2.85675 1.41804C3.08069 1.24115 3.31318 1.08346 3.5553 0.936812C3.57464 0.925029 3.59398 0.913246 3.6139 0.901107C4.32886 0.469829 5.12242 0.185621 5.93421 0.0579059C5.96709 0.052732 5.99997 0.0475581 6.03384 0.0422274C6.35421 -0.00476437 6.67246 -0.0123959 6.99549 -0.0116742Z" fill="#F14335"/>
<path d="M3.32422 9C3.33518 9.02874 3.34614 9.05748 3.35744 9.08709C3.78417 10.1823 4.57766 11.0626 5.60838 11.5169C6.69603 11.9755 7.85361 11.9289 8.92248 11.4343C9.01041 11.3889 9.09268 11.3344 9.17485 11.2781C9.23047 11.2559 9.23047 11.2559 9.28854 11.2783C9.35027 11.3218 9.40732 11.3688 9.4646 11.4188C9.50066 11.4502 9.50066 11.4502 9.53745 11.4822C9.57498 11.5152 9.57498 11.5152 9.61328 11.5488C9.63774 11.5702 9.6622 11.5916 9.68741 11.6136C9.76305 11.6798 9.83856 11.7461 9.91406 11.8125C9.96419 11.8565 10.0143 11.9004 10.0645 11.9443C10.5156 12.3398 10.5156 12.3398 10.9668 12.7354C11.0037 12.7677 11.0037 12.7677 11.0414 12.8007C11.0936 12.8465 11.1459 12.8924 11.1982 12.9383C11.2244 12.9613 11.2507 12.9844 11.2778 13.0082C11.3014 13.0289 11.3251 13.0496 11.3494 13.071C11.4175 13.1305 11.486 13.1894 11.5547 13.248C11.5181 13.3391 11.483 13.3876 11.4074 13.4443C11.3887 13.4584 11.37 13.4726 11.3508 13.4871C11.3307 13.5019 11.3105 13.5167 11.2898 13.5319C11.2689 13.5474 11.248 13.5629 11.2264 13.5789C11.031 13.7225 10.8315 13.8559 10.625 13.9805C10.6058 13.9922 10.5866 14.0039 10.5668 14.0159C9.85014 14.4482 9.05876 14.7277 8.24609 14.8594C8.21532 14.8646 8.18455 14.8698 8.15285 14.8751C7.8375 14.9234 7.52522 14.9285 7.20703 14.9271C7.17982 14.9271 7.15261 14.927 7.12458 14.9269C6.71866 14.9254 6.32118 14.9159 5.92188 14.8301C5.89475 14.8243 5.86763 14.8184 5.83968 14.8124C4.6575 14.5491 3.55742 14.0075 2.64062 13.1602C2.61007 13.1323 2.61007 13.1323 2.57889 13.1039C2.20961 12.7578 1.86313 12.3843 1.57422 11.959C1.5508 11.9253 1.52737 11.8916 1.50394 11.8579C1.38247 11.6814 1.26983 11.5004 1.16406 11.3126C1.15384 11.2945 1.14361 11.2763 1.13307 11.2576C1.08028 11.1619 1.03541 11.0674 1 10.9629C1.03479 10.9341 1.03479 10.9341 1.07028 10.9048C1.24169 10.7621 1.41035 10.6173 1.57422 10.4648C1.71515 10.3338 1.85935 10.2087 2.00681 10.0862C2.11559 9.99542 2.22148 9.90176 2.32617 9.80566C2.46222 9.68082 2.60139 9.56128 2.74304 9.44382C2.82605 9.37461 2.9074 9.30405 2.98701 9.23037C3.01126 9.20794 3.01126 9.20794 3.03599 9.18505C3.06684 9.15629 3.09754 9.12735 3.12806 9.09819C3.23328 9 3.23328 9 3.32422 9Z" fill="#28B446"/>
<path d="M0.766239 4.04297C0.94471 4.18268 1.1153 4.33176 1.28577 4.48242C1.33588 4.52639 1.38601 4.57034 1.43616 4.61426C1.88733 5.00977 1.88733 5.00977 2.3385 5.40527C2.36328 5.42699 2.38806 5.4487 2.41359 5.47108C2.4641 5.51537 2.51459 5.5597 2.56505 5.60406C2.59011 5.62607 2.61517 5.64809 2.64099 5.67078C2.66542 5.69249 2.68985 5.71421 2.71501 5.73658C2.76561 5.78008 2.81746 5.82195 2.87032 5.86224C2.90823 5.89164 2.90823 5.89164 2.9469 5.92163C2.98138 5.94712 2.98138 5.94712 3.01654 5.97313C3.06311 6.03516 3.06311 6.03516 3.06002 6.12957C3.05201 6.16609 3.04401 6.20261 3.03577 6.24023C3.03178 6.25918 3.0278 6.27813 3.02369 6.29766C3.01511 6.33815 3.00628 6.37858 2.99724 6.41896C2.81152 7.25204 2.86557 8.02473 3.06311 8.84766C3.08143 8.92576 3.09961 9.0039 3.1178 9.08203C3.09429 9.10156 3.07078 9.12108 3.04656 9.1412C2.86302 9.29429 2.68248 9.45013 2.50557 9.61194C2.39924 9.70909 2.29115 9.80334 2.1817 9.89639C1.92818 10.1128 1.67776 10.3334 1.42762 10.5542C1.39847 10.5799 1.39847 10.5799 1.36874 10.6061C1.28259 10.682 1.19664 10.7582 1.11145 10.8354C1.08495 10.8592 1.05844 10.883 1.03113 10.9076C0.997452 10.9382 0.997452 10.9382 0.963092 10.9695C0.903395 11.0153 0.863986 11.0287 0.793583 11.0449C0.403047 10.2185 0.138177 9.35759 0.0279576 8.4375C0.0243757 8.40818 0.0243757 8.40818 0.0207215 8.37827C0.00168363 8.21079 -0.00415937 8.04558 -0.0049404 7.87697C-0.00513344 7.84924 -0.00532647 7.82152 -0.00552536 7.79295C-0.0117568 6.63526 -0.0117568 6.63526 0.082645 6.15234C0.0880776 6.12378 0.0935102 6.09522 0.0991074 6.0658C0.230658 5.392 0.405195 4.62322 0.766239 4.04297Z" fill="#FABA00"/>
</g>
<defs>
<clipPath id="clip0_41_7857">
<rect width="14" height="15" fill="white"/>
</clipPath>
</defs>
</svg>
