<svg width="25" height="25" viewBox="0 0 25 25" fill="none" xmlns="http://www.w3.org/2000/svg">
<path d="M2.08333 25C1.50463 25 1.01273 24.7914 0.607639 24.3741C0.202546 23.9568 0 23.4502 0 22.8541V20.1359L5.55556 15.0572V25H2.08333ZM6.94444 25V19.2775H18.0556V25H6.94444ZM19.4444 25V13.269L13.5069 7.83262L17.7083 4.00572L24.3056 10.0501C24.537 10.2647 24.7106 10.5091 24.8264 10.7833C24.9421 11.0575 25 11.3495 25 11.6595V22.8541C25 23.4502 24.7975 23.9568 24.3924 24.3741C23.9873 24.7914 23.4954 25 22.9167 25H19.4444ZM0 18.2046V11.6595C0 11.3495 0.0578704 11.0515 0.173611 10.7654C0.289352 10.4793 0.462963 10.2408 0.694444 10.0501L11.1111 0.536481C11.2963 0.345732 11.5104 0.208631 11.7535 0.125179C11.9965 0.0417263 12.2454 0 12.5 0C12.7546 0 13.0035 0.0417263 13.2465 0.125179C13.4896 0.208631 13.7037 0.345732 13.8889 0.536481L16.6667 3.07582L0 18.2046Z" fill="#787070"/>
</svg>
