<svg width="29" height="18" viewBox="0 0 29 18" fill="none" xmlns="http://www.w3.org/2000/svg">
<path d="M7.90909 18C5.71212 18 3.8447 17.125 2.30682 15.375C0.768939 13.625 0 11.5 0 9C0 6.5 0.768939 4.375 2.30682 2.625C3.8447 0.875 5.71212 0 7.90909 0H21.0909C23.2879 0 25.1553 0.875 26.6932 2.625C28.2311 4.375 29 6.5 29 9C29 11.5 28.2311 13.625 26.6932 15.375C25.1553 17.125 23.2879 18 21.0909 18H7.90909ZM7.90909 15H21.0909C22.5409 15 23.7822 14.4125 24.8148 13.2375C25.8473 12.0625 26.3636 10.65 26.3636 9C26.3636 7.35 25.8473 5.9375 24.8148 4.7625C23.7822 3.5875 22.5409 3 21.0909 3H7.90909C6.45909 3 5.2178 3.5875 4.18523 4.7625C3.15265 5.9375 2.63636 7.35 2.63636 9C2.63636 10.65 3.15265 12.0625 4.18523 13.2375C5.2178 14.4125 6.45909 15 7.90909 15ZM21.0909 13.5C22.1894 13.5 23.1231 13.0625 23.892 12.1875C24.661 11.3125 25.0455 10.25 25.0455 9C25.0455 7.75 24.661 6.6875 23.892 5.8125C23.1231 4.9375 22.1894 4.5 21.0909 4.5C19.9924 4.5 19.0587 4.9375 18.2898 5.8125C17.5208 6.6875 17.1364 7.75 17.1364 9C17.1364 10.25 17.5208 11.3125 18.2898 12.1875C19.0587 13.0625 19.9924 13.5 21.0909 13.5Z" fill="#1E1E1E"/>
</svg>
