<svg width="23" height="18" viewBox="0 0 23 18" fill="none" xmlns="http://www.w3.org/2000/svg">
<path d="M15.7864 9.54545L14.2705 8.22727C14.4273 7.51515 14.192 6.84849 13.5648 6.22727C12.9375 5.60606 12.1273 5.36364 11.1341 5.5L9.61818 4.18182C9.91439 4.06061 10.215 3.9697 10.5199 3.90909C10.8248 3.84848 11.1515 3.81818 11.5 3.81818C12.8068 3.81818 13.9176 4.21591 14.8324 5.01136C15.7472 5.80682 16.2045 6.77273 16.2045 7.90909C16.2045 8.21212 16.1697 8.49621 16.1 8.76136C16.0303 9.02652 15.9258 9.28788 15.7864 9.54545ZM19.1318 12.4091L17.6159 11.1364C18.278 10.697 18.8661 10.2159 19.3801 9.69318C19.8941 9.17046 20.3341 8.57576 20.7 7.90909C19.8288 6.37879 18.5786 5.16288 16.9494 4.26136C15.3203 3.35985 13.5038 2.90909 11.5 2.90909C10.9947 2.90909 10.4981 2.93939 10.0102 3C9.52235 3.06061 9.04318 3.15152 8.57273 3.27273L6.95227 1.86364C7.66667 1.60606 8.39848 1.41288 9.14773 1.28409C9.89697 1.1553 10.6811 1.09091 11.5 1.09091C14.1311 1.09091 16.4746 1.72349 18.5307 2.98864C20.5867 4.25379 22.0765 5.89394 23 7.90909C22.5992 8.80303 22.0722 9.63258 21.4188 10.3977C20.7653 11.1629 20.003 11.8333 19.1318 12.4091ZM19.6545 18L15.2636 14.2273C14.6538 14.3939 14.0396 14.5189 13.421 14.6023C12.8025 14.6856 12.1621 14.7273 11.5 14.7273C8.86894 14.7273 6.52538 14.0947 4.46932 12.8295C2.41326 11.5644 0.923485 9.92424 0 7.90909C0.365909 7.10606 0.827652 6.35985 1.38523 5.67045C1.9428 4.98106 2.57879 4.36364 3.29318 3.81818L0.418182 1.27273L1.88182 0L21.1182 16.7273L19.6545 18ZM4.75682 5.09091C4.25152 5.48485 3.78977 5.91667 3.37159 6.38636C2.95341 6.85606 2.59621 7.36364 2.3 7.90909C3.17121 9.43939 4.4214 10.6553 6.05057 11.5568C7.67973 12.4583 9.49621 12.9091 11.5 12.9091C11.8485 12.9091 12.1883 12.8902 12.5193 12.8523C12.8504 12.8144 13.1902 12.7727 13.5386 12.7273L12.5977 11.8636C12.4061 11.9091 12.2231 11.9432 12.0489 11.9659C11.8746 11.9886 11.6917 12 11.5 12C10.1932 12 9.08239 11.6023 8.16761 10.8068C7.25284 10.0114 6.79545 9.04545 6.79545 7.90909C6.79545 7.74242 6.80852 7.58333 6.83466 7.43182C6.86079 7.2803 6.9 7.12121 6.95227 6.95455L4.75682 5.09091Z" fill="#1E1E1E"/>
</svg>
