<svg width="23" height="15" viewBox="0 0 23 15" fill="none" xmlns="http://www.w3.org/2000/svg">
<path d="M11.5 12C12.8068 12 13.9176 11.5625 14.8324 10.6875C15.7472 9.8125 16.2045 8.75 16.2045 7.5C16.2045 6.25 15.7472 5.1875 14.8324 4.3125C13.9176 3.4375 12.8068 3 11.5 3C10.1932 3 9.08239 3.4375 8.16761 4.3125C7.25284 5.1875 6.79545 6.25 6.79545 7.5C6.79545 8.75 7.25284 9.8125 8.16761 10.6875C9.08239 11.5625 10.1932 12 11.5 12ZM11.5 10.2C10.7159 10.2 10.0494 9.9375 9.50057 9.4125C8.9517 8.8875 8.67727 8.25 8.67727 7.5C8.67727 6.75 8.9517 6.1125 9.50057 5.5875C10.0494 5.0625 10.7159 4.8 11.5 4.8C12.2841 4.8 12.9506 5.0625 13.4994 5.5875C14.0483 6.1125 14.3227 6.75 14.3227 7.5C14.3227 8.25 14.0483 8.8875 13.4994 9.4125C12.9506 9.9375 12.2841 10.2 11.5 10.2ZM11.5 15C8.95606 15 6.63864 14.3208 4.54773 12.9625C2.45682 11.6042 0.940909 9.78333 0 7.5C0.940909 5.21667 2.45682 3.39583 4.54773 2.0375C6.63864 0.679167 8.95606 0 11.5 0C14.0439 0 16.3614 0.679167 18.4523 2.0375C20.5432 3.39583 22.0591 5.21667 23 7.5C22.0591 9.78333 20.5432 11.6042 18.4523 12.9625C16.3614 14.3208 14.0439 15 11.5 15ZM11.5 13C13.4689 13 15.2767 12.5042 16.9233 11.5125C18.5699 10.5208 19.8288 9.18333 20.7 7.5C19.8288 5.81667 18.5699 4.47917 16.9233 3.4875C15.2767 2.49583 13.4689 2 11.5 2C9.53106 2 7.7233 2.49583 6.0767 3.4875C4.43011 4.47917 3.17121 5.81667 2.3 7.5C3.17121 9.18333 4.43011 10.5208 6.0767 11.5125C7.7233 12.5042 9.53106 13 11.5 13Z" fill="#1E1E1E"/>
</svg>
