<svg width="25" height="25" viewBox="0 0 25 25" fill="none" xmlns="http://www.w3.org/2000/svg">
<path d="M12.5 13.2353C10.7812 13.2353 9.3099 12.6593 8.08594 11.5074C6.86198 10.3554 6.25 8.97059 6.25 7.35294V2.20588C6.25 1.59314 6.47786 1.0723 6.93359 0.643382C7.38932 0.214461 7.94271 0 8.59375 0C8.98438 0 9.35547 0.0857843 9.70703 0.257353C10.0586 0.428922 10.3385 0.67402 10.5469 0.992647C10.7552 0.67402 11.0352 0.428922 11.3867 0.257353C11.7383 0.0857843 12.1094 0 12.5 0C12.8906 0 13.2617 0.0857843 13.6133 0.257353C13.9648 0.428922 14.2448 0.67402 14.4531 0.992647C14.6615 0.67402 14.9414 0.428922 15.293 0.257353C15.6445 0.0857843 16.0156 0 16.4062 0C17.0573 0 17.6107 0.214461 18.0664 0.643382C18.5221 1.0723 18.75 1.59314 18.75 2.20588V7.35294C18.75 8.97059 18.138 10.3554 16.9141 11.5074C15.6901 12.6593 14.2188 13.2353 12.5 13.2353ZM12.5 10.2941C13.3594 10.2941 14.0951 10.0061 14.707 9.43015C15.319 8.85417 15.625 8.16176 15.625 7.35294V3.67647H9.375V7.35294C9.375 8.16176 9.68099 8.85417 10.293 9.43015C10.9049 10.0061 11.6406 10.2941 12.5 10.2941ZM0 25V20.8824C0 20.049 0.227865 19.2831 0.683594 18.5846C1.13932 17.886 1.74479 17.3529 2.5 16.9853C4.11458 16.2255 5.75521 15.6556 7.42188 15.2757C9.08854 14.8958 10.7812 14.7059 12.5 14.7059C14.2188 14.7059 15.9115 14.8958 17.5781 15.2757C19.2448 15.6556 20.8854 16.2255 22.5 16.9853C23.2552 17.3529 23.8607 17.886 24.3164 18.5846C24.7721 19.2831 25 20.049 25 20.8824V25H0ZM3.125 22.0588H21.875V20.8824C21.875 20.6127 21.8034 20.3676 21.6602 20.1471C21.5169 19.9265 21.3281 19.7549 21.0938 19.6324C19.6875 18.9706 18.2682 18.4743 16.8359 18.1434C15.4036 17.8125 13.9583 17.6471 12.5 17.6471C11.0417 17.6471 9.59635 17.8125 8.16406 18.1434C6.73177 18.4743 5.3125 18.9706 3.90625 19.6324C3.67188 19.7549 3.48307 19.9265 3.33984 20.1471C3.19661 20.3676 3.125 20.6127 3.125 20.8824V22.0588Z" fill="#787070"/>
</svg>
