<svg width="13" height="13" viewBox="0 0 13 13" fill="none" xmlns="http://www.w3.org/2000/svg">
<path d="M6.5 10.1111C6.70463 10.1111 6.87616 10.0419 7.01458 9.90347C7.15301 9.76505 7.22222 9.59352 7.22222 9.38889C7.22222 9.18426 7.15301 9.01273 7.01458 8.8743C6.87616 8.73588 6.70463 8.66667 6.5 8.66667C6.29537 8.66667 6.12384 8.73588 5.98542 8.8743C5.84699 9.01273 5.77778 9.18426 5.77778 9.38889C5.77778 9.59352 5.84699 9.76505 5.98542 9.90347C6.12384 10.0419 6.29537 10.1111 6.5 10.1111ZM5.77778 7.22222H7.22222V2.88889H5.77778V7.22222ZM3.79167 13L0 9.20833V3.79167L3.79167 0H9.20833L13 3.79167V9.20833L9.20833 13H3.79167ZM4.40556 11.5556H8.59444L11.5556 8.59444V4.40556L8.59444 1.44444H4.40556L1.44444 4.40556V8.59444L4.40556 11.5556Z" fill="#F14335"/>
</svg>
