<svg width="29" height="18" viewBox="0 0 29 18" fill="none" xmlns="http://www.w3.org/2000/svg">
<path d="M21.0909 18C23.2879 18 25.1553 17.125 26.6932 15.375C28.2311 13.625 29 11.5 29 9C29 6.5 28.2311 4.375 26.6932 2.625C25.1553 0.875 23.2879 0 21.0909 0H7.90909C5.71212 0 3.8447 0.875 2.30682 2.625C0.76894 4.375 0 6.5 0 9C0 11.5 0.76894 13.625 2.30682 15.375C3.8447 17.125 5.71212 18 7.90909 18H21.0909ZM21.0909 15H7.90909C6.45909 15 5.2178 14.4125 4.18523 13.2375C3.15265 12.0625 2.63637 10.65 2.63637 9C2.63637 7.35 3.15265 5.9375 4.18523 4.7625C5.2178 3.5875 6.45909 3 7.90909 3H21.0909C22.5409 3 23.7822 3.5875 24.8148 4.7625C25.8473 5.9375 26.3636 7.35 26.3636 9C26.3636 10.65 25.8473 12.0625 24.8148 13.2375C23.7822 14.4125 22.5409 15 21.0909 15ZM7.90909 13.5C6.81061 13.5 5.8769 13.0625 5.10796 12.1875C4.33902 11.3125 3.95455 10.25 3.95455 9C3.95455 7.75 4.33902 6.6875 5.10796 5.8125C5.8769 4.9375 6.81061 4.5 7.90909 4.5C9.00758 4.5 9.94129 4.9375 10.7102 5.8125C11.4792 6.6875 11.8636 7.75 11.8636 9C11.8636 10.25 11.4792 11.3125 10.7102 12.1875C9.94129 13.0625 9.00758 13.5 7.90909 13.5Z" fill="#1E1E1E"/>
</svg>
