<svg width="14" height="14" viewBox="0 0 14 14" fill="none" xmlns="http://www.w3.org/2000/svg">
<path d="M9.64286 5.90625V4.21875H13.5V5.90625H9.64286ZM5.14286 6.75C4.43571 6.75 3.83036 6.41953 3.32679 5.75859C2.82321 5.09766 2.57143 4.30312 2.57143 3.375C2.57143 2.44688 2.82321 1.65234 3.32679 0.991406C3.83036 0.330469 4.43571 0 5.14286 0C5.85 0 6.45536 0.330469 6.95893 0.991406C7.4625 1.65234 7.71429 2.44688 7.71429 3.375C7.71429 4.30312 7.4625 5.09766 6.95893 5.75859C6.45536 6.41953 5.85 6.75 5.14286 6.75ZM0 13.5V11.1375C0 10.6594 0.09375 10.2199 0.28125 9.81914C0.46875 9.41836 0.717857 9.1125 1.02857 8.90156C1.69286 8.46562 2.36786 8.13867 3.05357 7.9207C3.73929 7.70273 4.43571 7.59375 5.14286 7.59375C5.85 7.59375 6.54643 7.70273 7.23214 7.9207C7.91786 8.13867 8.59286 8.46562 9.25714 8.90156C9.56786 9.1125 9.81696 9.41836 10.0045 9.81914C10.192 10.2199 10.2857 10.6594 10.2857 11.1375V13.5H0ZM1.28571 11.8125H9V11.1375C9 10.9828 8.97054 10.8422 8.91161 10.7156C8.85268 10.5891 8.775 10.4906 8.67857 10.4203C8.1 10.0406 7.51607 9.75586 6.92679 9.56602C6.3375 9.37617 5.74286 9.28125 5.14286 9.28125C4.54286 9.28125 3.94821 9.37617 3.35893 9.56602C2.76964 9.75586 2.18571 10.0406 1.60714 10.4203C1.51071 10.4906 1.43304 10.5891 1.37411 10.7156C1.31518 10.8422 1.28571 10.9828 1.28571 11.1375V11.8125ZM5.14286 5.0625C5.49643 5.0625 5.79911 4.89727 6.05089 4.5668C6.30268 4.23633 6.42857 3.83906 6.42857 3.375C6.42857 2.91094 6.30268 2.51367 6.05089 2.1832C5.79911 1.85273 5.49643 1.6875 5.14286 1.6875C4.78929 1.6875 4.48661 1.85273 4.23482 2.1832C3.98304 2.51367 3.85714 2.91094 3.85714 3.375C3.85714 3.83906 3.98304 4.23633 4.23482 4.5668C4.48661 4.89727 4.78929 5.0625 5.14286 5.0625Z" fill="#1E1E1E"/>
</svg>
